<?xml version="1.0" encoding="UTF-8" standalone="no"?>
<svg
   xmlns:dc="http://purl.org/dc/elements/1.1/"
   xmlns:cc="http://creativecommons.org/ns#"
   xmlns:rdf="http://www.w3.org/1999/02/22-rdf-syntax-ns#"
   xmlns:svg="http://www.w3.org/2000/svg"
   xmlns="http://www.w3.org/2000/svg"
   xmlns:sodipodi="http://sodipodi.sourceforge.net/DTD/sodipodi-0.dtd"
   xmlns:inkscape="http://www.inkscape.org/namespaces/inkscape"
   viewBox="0 0 22 22"
   id="svg2"
   version="1.1"
   inkscape:version="0.91 r13725"
   sodipodi:docname="reset.svg">
  <metadata
     id="metadata10">
    <rdf:RDF>
      <cc:Work
         rdf:about="">
        <dc:format>image/svg+xml</dc:format>
        <dc:type
           rdf:resource="http://purl.org/dc/dcmitype/StillImage" />
        <dc:title></dc:title>
      </cc:Work>
    </rdf:RDF>
  </metadata>
  <sodipodi:namedview
     pagecolor="#ffffff"
     bordercolor="#666666"
     borderopacity="1"
     objecttolerance="10"
     gridtolerance="10"
     guidetolerance="10"
     inkscape:pageopacity="0"
     inkscape:pageshadow="2"
     inkscape:window-width="640"
     inkscape:window-height="480"
     id="namedview8"
     showgrid="false"
     inkscape:zoom="10.727273"
     inkscape:cx="11"
     inkscape:cy="11"
     inkscape:window-x="132"
     inkscape:window-y="187"
     inkscape:window-maximized="0"
     inkscape:current-layer="svg2" />
  <defs
     id="defs3051">
    <style
       type="text/css"
       id="current-color-scheme">
      .ColorScheme-Text {
        color:#f2f2f2;
      }
      .ColorScheme-Highlight {
        color:#3daee9;
      }
      </style>
  </defs>
  <path
     style="fill:currentColor;fill-opacity:1;stroke:#4d4d4d;stroke-width:0.3;stroke-miterlimit:4;stroke-dasharray:none;stroke-linecap:butt;stroke-linejoin:miter"
     d="M 11 3 C 9.558286 3 8.2107109 3.3829219 7.0449219 4.0449219 L 7.7832031 4.7832031 C 7.7832031 4.7832031 7.7851562 4.78125 7.7851562 4.78125 L 10.564453 7.5585938 L 11.271484 6.8515625 L 8.7890625 4.3710938 C 9.4846855 4.1384172 10.223912 4 11 4 C 14.87797 4 18 7.122 18 11 C 18 12.1625 17.714172 13.253897 17.216797 14.216797 L 17.955078 14.955078 C 18.617129 13.789278 19 12.4417 19 11 C 19 6.568 15.431966 3 11 3 z M 4.0449219 7.0449219 C 3.3828709 8.2107219 3 9.5583 3 11 C 3 15.432 6.568034 19 11 19 C 12.441714 19 13.789289 18.617078 14.955078 17.955078 L 14.271484 17.271484 L 14.273438 17.269531 L 11.445312 14.441406 L 10.738281 15.148438 L 13.216797 17.626953 C 12.519497 17.860874 11.778264 18 11 18 C 7.12203 18 4 14.878 4 11 C 4 9.8375 4.2858291 8.7461031 4.7832031 7.7832031 L 4.0449219 7.0449219 z "
     class="ColorScheme-Text"
     id="path6" />
</svg>
