<?xml version="1.0" encoding="UTF-8" standalone="no"?>
<svg
   xmlns:dc="http://purl.org/dc/elements/1.1/"
   xmlns:cc="http://creativecommons.org/ns#"
   xmlns:rdf="http://www.w3.org/1999/02/22-rdf-syntax-ns#"
   xmlns:svg="http://www.w3.org/2000/svg"
   xmlns="http://www.w3.org/2000/svg"
   xmlns:sodipodi="http://sodipodi.sourceforge.net/DTD/sodipodi-0.dtd"
   xmlns:inkscape="http://www.inkscape.org/namespaces/inkscape"
   viewBox="0 0 22 22"
   id="svg2"
   version="1.1"
   inkscape:version="0.91 r13725"
   sodipodi:docname="view-media-visualization.svg">
  <metadata
     id="metadata10">
    <rdf:RDF>
      <cc:Work
         rdf:about="">
        <dc:format>image/svg+xml</dc:format>
        <dc:type
           rdf:resource="http://purl.org/dc/dcmitype/StillImage" />
        <dc:title></dc:title>
      </cc:Work>
    </rdf:RDF>
  </metadata>
  <sodipodi:namedview
     pagecolor="#ffffff"
     bordercolor="#666666"
     borderopacity="1"
     objecttolerance="10"
     gridtolerance="10"
     guidetolerance="10"
     inkscape:pageopacity="0"
     inkscape:pageshadow="2"
     inkscape:window-width="1251"
     inkscape:window-height="817"
     id="namedview8"
     showgrid="false"
     inkscape:zoom="10.727273"
     inkscape:cx="11"
     inkscape:cy="11"
     inkscape:window-x="0"
     inkscape:window-y="0"
     inkscape:window-maximized="0"
     inkscape:current-layer="svg2" />
  <defs
     id="defs3051">
    <style
       type="text/css"
       id="current-color-scheme">
      .ColorScheme-Text {
        color:#f2f2f2;
      }
      </style>
  </defs>
  <path
     style="fill:currentColor;fill-opacity:1;stroke:#000000;stroke-width:0.35;stroke-miterlimit:4;stroke-dasharray:none"
     d="M 6 4 L 6 6 L 5 6 L 5 9 L 4 9 L 4 11 L 3 11 L 3 12 L 4 12 L 4 14 L 5 14 L 5 17 L 6 17 L 6 19 L 7 19 L 7 16 L 8 16 L 8 13 L 9 13 L 9 12 L 11 12 L 11 13 L 12 13 L 12 14 L 13 14 L 13 15 L 14 15 L 14 17 L 15 17 L 15 16 L 16 16 L 16 14 L 17 14 L 17 13 L 18 13 L 18 12 L 19 12 L 19 11 L 18 11 L 18 10 L 17 10 L 17 9 L 16 9 L 16 7 L 15 7 L 15 6 L 14 6 L 14 8 L 13 8 L 13 9 L 12 9 L 12 10 L 11 10 L 11 11 L 9 11 L 9 10 L 8 10 L 8 7 L 7 7 L 7 4 L 6 4 z "
     class="ColorScheme-Text"
     id="path6" />
</svg>
