<?xml version="1.0" encoding="UTF-8" standalone="no"?>
<!-- Created with Inkscape (http://www.inkscape.org/) -->

<svg
   width="210mm"
   height="210mm"
   viewBox="0 0 744.09449 744.09448"
   id="svg2"
   version="1.1"
   inkscape:version="1.4.2 (unknown)"
   sodipodi:docname="bc_logo_trans.svg"
   inkscape:export-filename="/home/kncrabtree/Documents/programs/blackchirp/wiki/images/bc_logo_large.png"
   inkscape:export-xdpi="123.85524"
   inkscape:export-ydpi="123.85524"
   xmlns:inkscape="http://www.inkscape.org/namespaces/inkscape"
   xmlns:sodipodi="http://sodipodi.sourceforge.net/DTD/sodipodi-0.dtd"
   xmlns:xlink="http://www.w3.org/1999/xlink"
   xmlns="http://www.w3.org/2000/svg"
   xmlns:svg="http://www.w3.org/2000/svg"
   xmlns:rdf="http://www.w3.org/1999/02/22-rdf-syntax-ns#"
   xmlns:cc="http://creativecommons.org/ns#"
   xmlns:dc="http://purl.org/dc/elements/1.1/">
  <defs
     id="defs4" />
  <sodipodi:namedview
     id="base"
     pagecolor="#ffffff"
     bordercolor="#666666"
     borderopacity="1.0"
     inkscape:pageopacity="1"
     inkscape:pageshadow="2"
     inkscape:zoom="0.7"
     inkscape:cx="10"
     inkscape:cy="304.28571"
     inkscape:document-units="px"
     inkscape:current-layer="layer2"
     showgrid="true"
     inkscape:window-width="1920"
     inkscape:window-height="1052"
     inkscape:window-x="0"
     inkscape:window-y="0"
     inkscape:window-maximized="1"
     inkscape:showpageshadow="0"
     inkscape:pagecheckerboard="1"
     inkscape:deskcolor="#d1d1d1">
    <inkscape:grid
       type="xygrid"
       id="grid4136"
       units="mm"
       spacingx="3.5433071"
       spacingy="3.5433071"
       color="#747474"
       opacity="0.1254902"
       dotted="false"
       empcolor="#000000"
       empopacity="0.25098039"
       originx="0"
       originy="0" />
  </sodipodi:namedview>
  <metadata
     id="metadata7">
    <rdf:RDF>
      <cc:Work
         rdf:about="">
        <dc:format>image/svg+xml</dc:format>
        <dc:type
           rdf:resource="http://purl.org/dc/dcmitype/StillImage" />
      </cc:Work>
    </rdf:RDF>
  </metadata>
  <g
     inkscape:groupmode="layer"
     id="layer2"
     inkscape:label="Layer 2"
     style="display:inline">
    <path
       id="path4138"
       style="fill-rule:evenodd;stroke:none;stroke-width:15;stroke-linecap:butt;stroke-linejoin:miter;stroke-miterlimit:4;stroke-dasharray:none;stroke-opacity:1"
       inkscape:label="path4138"
       d="M 38.1958 313.3965 L 38.1958 421.50746 L 162.79541 421.50746 C 174.35684 421.44934 186.17941 421.63406 198.22814 422.52553 C 218.40485 424.01763 239.21575 427.13376 259.77355 433.89455 A 22.897776 22.897776 0 0 1 259.80285 433.9037 C 260.07799 433.9946 260.35336 434.08784 260.62865 434.18019 L 38.1958 313.3965 z M 307.81493 459.80214 C 308.76257 460.59982 309.7026 461.41591 310.63293 462.25026 L 310.63476 462.25209 L 310.63659 462.25392 L 310.63842 462.25392 L 310.64025 462.25575 C 310.64649 462.26129 310.65418 462.26665 310.66039 462.27223 C 310.68235 462.29184 310.70437 462.31304 310.72631 462.33266 A 22.897776 22.897776 0 0 1 311.25915 462.84169 L 310.81054 462.41689 C 323.01899 473.35706 332.86159 487.10482 339.29626 502.75136 C 339.3038 502.76953 339.31252 502.78812 339.32006 502.80629 L 339.30358 502.76234 C 339.30849 502.77428 339.31332 502.7852 339.31823 502.79713 A 22.897776 22.897776 0 0 1 339.54528 503.40871 L 339.38781 502.98573 C 346.74474 520.80868 349.33215 539.55248 349.27733 557.49257 C 349.25786 575.30512 346.4796 593.68799 339.3933 611.10585 C 339.38913 611.11667 339.37939 611.14275 339.37865 611.1443 C 339.37755 611.147 339.37609 611.14893 339.37499 611.15162 C 331.83062 629.84422 319.79431 645.89759 305.13427 658.34156 C 305.13684 658.34291 305.14086 658.34388 305.14342 658.34523 L 305.14526 658.34523 C 308.16156 659.92372 311.19587 661.43864 314.13756 663.27076 L 314.1394 663.27076 L 314.1394 663.27259 L 314.14123 663.27259 L 314.14123 663.27442 C 326.09059 670.66619 336.76227 680.06806 345.79284 690.98561 C 353.48414 698.63838 360.67424 705.80866 346.02538 691.26759 C 346.28502 691.58322 346.54302 691.9016 346.79992 692.21974 A 22.897776 22.897776 0 0 1 346.88048 692.30763 C 346.88458 692.31268 346.88921 692.31722 346.8933 692.32227 L 346.89513 692.32594 C 357.81203 705.81711 365.89315 721.69021 370.42785 738.83656 L 370.42602 738.81825 C 370.42879 738.82859 370.42873 738.83903 370.43151 738.84937 C 370.43732 738.87137 370.44768 738.89146 370.45348 738.91346 A 22.897776 22.897776 0 0 1 370.46264 738.99403 C 370.72571 739.97854 370.97614 740.9636 371.2152 741.94935 C 371.2594 724.6504 371.28316 732.46835 371.28661 742.24598 C 375.35306 759.18335 375.93276 776.26934 374.60631 792.55237 C 373.12709 810.71139 368.68113 828.99389 360.29662 845.87452 C 379.05768 808.61717 339.8909 886.75024 359.58251 847.29542 L 359.59533 847.26978 A 22.897776 22.897776 0 0 0 359.60998 847.24048 C 359.61871 847.22298 359.62685 847.20493 359.63561 847.18738 C 359.61425 847.22918 359.5911 847.27011 359.56969 847.31189 C 351.15443 863.856 339.39987 877.92467 325.86181 889.15882 C 325.85871 889.16114 325.85566 889.16364 325.85265 889.16614 C 325.84454 889.17287 325.83879 889.18139 325.83068 889.18811 A 22.897776 22.897776 0 0 1 325.80688 889.20276 C 325.10855 889.78419 324.40541 890.35765 323.69933 890.92395 C 339.68401 882.96915 332.40494 886.63057 323.49792 891.08692 C 321.65224 892.56196 319.7807 893.98472 317.88573 895.35877 L 421.33483 839.18567 C 412.0055 821.02039 405.23629 801.75834 400.36925 782.3296 A 22.897776 22.897776 0 0 1 400.36925 782.30396 L 400.36559 782.30762 C 392.37813 750.27423 389.2476 717.60101 388.61388 685.51075 A 22.897776 22.897776 0 0 1 388.61205 685.443 C 388.13758 657.14846 389.27381 628.47904 393.25194 599.89247 A 22.897776 22.897776 0 0 1 393.25744 599.85218 C 397.13081 572.38228 403.69809 544.53547 415.39306 518.21828 L 307.81493 459.80214 z M 122.33276 499.45912 L 122.33276 504.30958 C 122.58956 503.91792 122.69372 503.885 122.71362 503.8683 L 122.71545 503.86647 L 122.71545 503.86464 L 122.71728 503.86464 L 122.71728 503.86281 L 122.71728 503.86098 L 122.71728 503.85915 L 122.71545 503.85731 C 122.68805 503.80294 122.33377 503.48523 122.33276 499.45912 z M 100.69885 521.0912 C 104.72496 521.09221 105.04267 521.44832 105.09704 521.47572 L 105.09887 521.47572 L 105.10071 521.47755 L 105.10254 521.47755 L 105.10254 521.47572 L 105.10437 521.47572 L 105.1062 521.47389 C 105.1229 521.45399 105.15765 521.348 105.54931 521.0912 L 100.69885 521.0912 z M 122.33276 521.0912 L 122.33276 616.45069 L 161.25732 616.45069 A 22.897776 22.897776 0 0 1 161.30493 616.45069 C 170.27578 616.4687 178.49189 616.48872 185.95092 615.79884 A 22.897776 22.897776 0 0 1 186.04064 615.79152 C 197.48581 614.77814 207.99885 612.63947 217.00012 608.64491 A 22.897776 22.897776 0 0 0 217.00195 608.64491 C 223.72127 605.6634 229.387 601.47139 233.19579 596.40431 A 22.897776 22.897776 0 0 1 233.26904 596.30543 C 236.63121 591.88341 239.24855 585.66826 240.49804 578.80238 C 241.48502 573.23661 241.82347 567.40224 241.53625 561.54469 C 237.72486 553.95175 235.18716 548.869 241.52892 561.42384 C 241.46223 560.10332 241.36403 558.78126 241.23412 557.46144 C 240.58328 551.1378 238.80823 545.5949 236.48071 541.58436 C 235.15929 539.83197 234.70174 539.2357 233.31664 537.38576 C 232.92523 536.96448 232.54561 536.52503 232.15209 536.10951 C 230.40963 534.80221 228.66394 533.4901 227.1112 532.32106 C 224.78741 530.88977 222.20634 529.6022 219.40612 528.46669 C 211.02024 525.0984 201.26462 523.16843 190.85266 522.09645 A 22.897776 22.897776 0 0 1 190.84899 522.09645 C 187.39403 521.74001 183.97392 521.50656 180.30395 521.33107 L 180.30212 521.33107 C 176.77108 521.17203 173.17348 521.09819 169.47326 521.0912 C 169.45992 521.09118 169.44632 521.09122 169.43298 521.0912 L 122.33276 521.0912 z M 224.97253 529.54335 L 227.92419 530.12013 C 227.92302 530.11852 227.91986 530.11258 227.91869 530.11098 A 22.897776 22.897776 0 0 1 224.97253 529.54335 z M 228.30505 533.08461 C 229.24467 533.78285 230.29807 534.56523 231.47277 535.43934 C 231.4034 535.3768 231.33328 535.31604 231.2622 535.25624 C 230.33704 534.50171 229.34974 533.77768 228.30505 533.08461 z M 231.86096 535.71583 L 232.05688 535.8733 C 232.09229 535.89966 232.12563 535.92553 232.16125 535.95204 A 22.897776 22.897776 0 0 1 231.86096 535.71583 z M 234.41161 538.42213 C 234.47547 538.50887 234.4155 538.42994 234.49218 538.53383 C 234.54044 538.5971 234.50016 538.54127 234.54894 538.60524 A 22.897776 22.897776 0 0 1 234.41161 538.42213 z M 234.70458 538.82313 C 235.38269 539.74249 234.95657 539.17991 235.53771 539.96937 C 235.49996 539.91524 235.46767 539.84141 235.42968 539.7881 A 22.897776 22.897776 0 0 1 235.28137 539.57753 C 235.3566 539.68564 235.02449 539.24239 234.73571 538.85609 C 234.72638 538.84417 234.71496 538.83372 234.70458 538.82313 z M 243.52111 565.33314 L 243.54308 565.41005 C 243.55414 565.43214 243.56502 565.45395 243.57604 565.47596 A 22.897776 22.897776 0 0 1 243.52111 565.33314 z M 511.6461 570.4839 C 509.7059 576.39423 508.05454 582.58642 506.63817 588.95924 C 506.17297 591.06979 505.73386 593.20138 505.31981 595.35145 C 512.33062 588.36115 509.94462 590.76019 505.31066 595.39906 C 503.5439 604.58259 502.23214 614.09081 501.27867 623.6266 A 22.897776 22.897776 0 0 1 501.27684 623.65223 C 500.7428 628.93997 500.3218 634.42331 499.98229 639.84608 C 499.98318 651.1971 499.95769 663.12746 499.90538 641.10035 C 499.89298 641.30553 499.88094 641.51066 499.86876 641.71559 C 499.53883 647.73602 499.28812 653.77228 499.1638 659.63063 A 22.897776 22.897776 0 0 1 499.16197 659.68006 C 498.91748 670.1389 498.94623 680.73552 499.24437 691.11195 C 499.73875 707.45807 500.93099 723.55073 503.25255 739.25037 A 22.897776 22.897776 0 0 1 503.25438 739.25587 C 504.67632 748.8877 506.55739 758.4741 508.97093 767.54932 A 22.897776 22.897776 0 0 1 508.9746 767.56397 C 509.95521 771.26112 510.99032 774.75213 512.17162 778.33607 C 512.54957 779.47007 512.93717 780.59336 513.33434 781.70521 C 513.36148 766.3774 513.37692 772.82254 513.38011 781.83155 C 514.12381 783.90797 514.90036 785.94441 515.71288 787.93629 L 713.90989 680.31422 L 511.6461 570.4839 z M 500.51146 600.13417 A 22.897776 22.897776 0 0 1 500.46019 600.20009 C 500.46573 600.19455 500.47113 600.18913 500.47667 600.18361 C 500.4822 600.17807 500.48945 600.17084 500.49498 600.1653 L 500.51146 600.13417 z M 105.07507 616.05519 L 105.07324 616.05702 C 105.02316 616.09661 104.67487 616.4497 100.69885 616.45069 L 105.54931 616.45069 C 105.14713 616.187 105.09607 616.07256 105.08056 616.05702 L 105.08056 616.05519 L 105.07873 616.05519 L 105.0769 616.05519 L 105.07507 616.05519 z M 122.33276 633.2378 L 122.33276 638.08461 C 122.33373 634.0674 122.68468 633.74142 122.71179 633.68458 L 122.71179 633.68275 L 122.71179 633.68092 L 122.71179 633.67909 L 122.71179 633.67726 L 122.71179 633.67543 L 122.70996 633.67359 C 122.69028 633.6565 122.58671 633.62323 122.33276 633.2378 z M 259.18578 642.62928 A 22.897776 22.897776 0 0 1 259.77355 642.76295 C 259.7388 642.75404 259.70377 642.74619 259.66918 642.73732 C 259.61486 642.72412 259.56095 642.71033 259.50622 642.69703 L 259.18578 642.62928 z M 345.21789 690.46742 A 22.897776 22.897776 0 0 1 345.28014 690.53333 L 345.26366 690.51319 C 345.25896 690.50852 345.25555 690.50322 345.25085 690.49854 C 345.24039 690.48812 345.22832 690.47782 345.21789 690.46742 z M 122.33276 693.03272 L 122.33276 697.87953 C 122.58671 697.4941 122.68845 697.46266 122.70813 697.44557 L 122.70996 697.44373 L 122.71179 697.44373 L 122.71179 697.4419 L 122.71179 697.44007 L 122.71179 697.43824 L 122.71179 697.43641 L 122.71179 697.43458 C 122.68468 697.37774 122.33373 697.04992 122.33276 693.03272 z M 100.69885 714.66663 C 104.72496 714.66764 105.04267 715.02192 105.09704 715.04933 L 105.09887 715.04933 L 105.09887 715.05116 L 105.10071 715.05116 L 105.10254 715.05116 L 105.10437 715.05116 L 105.10437 715.04933 L 105.1062 715.04933 C 105.1229 715.02942 105.15765 714.92344 105.54931 714.66663 L 100.69885 714.66663 z M 122.33276 714.66663 L 122.33276 831.26453 L 175.10559 831.26453 C 181.22653 831.26054 187.07655 831.29757 192.32116 831.09974 C 192.32448 831.09961 192.327 831.09986 192.33032 831.09974 C 203.67823 830.66386 214.52494 829.48843 224.63561 827.02198 C 234.09617 824.69119 242.38194 821.34653 248.85314 816.59229 C 252.70875 813.74906 256.30657 809.94672 258.88366 805.92823 A 22.897776 22.897776 0 0 1 258.94225 805.83668 C 260.23505 803.84159 261.53525 801.34712 262.5238 798.97388 A 22.897776 22.897776 0 0 0 262.5238 798.97205 C 263.02771 797.75616 263.39697 796.7652 263.82751 795.48756 C 264.06444 794.77126 264.30383 794.00602 264.51049 793.29761 C 264.68606 792.68785 264.85229 792.06909 265.01037 791.44276 C 256.78751 807.85392 260.554 800.25889 265.07079 791.19739 C 266.27155 786.35471 266.95858 781.03577 267.18932 775.44117 C 267.39186 770.232 267.19664 764.90116 266.50268 760.49061 A 22.897776 22.897776 0 0 1 266.47521 760.30933 C 266.33527 759.3709 266.07879 758.0129 265.83068 756.85963 C 265.66942 756.13658 265.52395 755.54687 265.30151 754.68067 C 265.242 772.22884 265.21058 764.20094 265.20629 754.32728 C 264.37665 751.30758 263.14819 748.11158 261.85363 745.63892 A 22.897776 22.897776 0 0 1 261.77856 745.4961 C 258.54527 739.21292 253.28885 733.65605 246.96716 729.46522 C 246.96404 729.46316 246.95929 729.46179 246.95617 729.45973 C 246.38072 729.07913 245.79652 728.70651 245.20202 728.34461 C 257.87183 740.9798 252.13128 735.28513 245.07751 728.26954 C 238.29807 724.16629 230.30958 721.25336 221.59606 719.13441 C 219.47118 718.81427 211.49927 717.37035 204.8529 716.1388 C 196.31355 715.11773 187.62749 714.67979 178.65234 714.66663 C 178.64243 714.66662 178.63295 714.66665 178.62304 714.66663 L 122.33276 714.66663 z M 209.38842 716.69361 C 209.53723 716.72195 209.41105 716.69878 209.55688 716.72657 C 209.7304 716.75649 209.58055 716.72886 209.7583 716.75953 L 209.87182 716.77784 A 22.897776 22.897776 0 0 1 209.38842 716.69361 z M 209.84069 716.78333 C 215.50595 717.8641 218.83492 718.51441 220.43701 718.84327 C 219.64564 718.63839 218.85774 718.42775 218.03832 718.25367 C 216.63491 717.95569 214.93958 717.62971 213.33068 717.3473 A 22.897776 22.897776 0 0 1 213.17504 717.31983 C 212.54941 717.20559 211.42128 717.03063 210.2124 716.8346 C 210.06935 716.81383 209.97905 716.80341 209.84069 716.78333 z M 370.84899 742.00611 A 22.897776 22.897776 0 0 1 371.20971 744.80763 C 371.20975 744.79101 371.20967 744.77294 371.20971 744.75636 C 371.20967 744.73977 371.20975 744.72354 371.20971 744.70692 L 370.84899 742.00611 z M 265.31066 751.93592 C 265.31059 751.95809 265.31073 751.97974 265.31066 752.00184 C 265.31073 752.02394 265.31059 752.04559 265.31066 752.06776 L 265.32531 752.19776 A 22.897776 22.897776 0 0 1 265.31066 751.93592 z M 283.64318 784.88209 L 283.61571 784.9004 C 283.62833 784.89674 283.6406 784.89153 283.64501 784.88758 L 283.64501 784.88575 L 283.64501 784.88392 L 283.64318 784.88209 z M 513.31236 785.39295 A 22.897776 22.897776 0 0 1 513.32884 785.56324 C 513.32886 785.55216 513.32883 785.54134 513.32884 785.53028 C 513.32883 785.51922 513.32886 785.50657 513.32884 785.49549 L 513.31236 785.39295 z M 266.03393 789.40113 C 266.0251 789.41875 266.01526 789.43666 266.00646 789.45423 C 266.00421 789.45877 266.00139 789.46251 265.99914 789.46705 L 265.17516 791.58741 A 22.897776 22.897776 0 0 1 266.03393 789.40113 z M 105.07507 830.86719 L 105.07324 830.86902 C 105.02316 830.90861 104.67487 831.26354 100.69885 831.26453 L 105.54931 831.26453 C 105.14713 831.00084 105.09607 830.88457 105.08056 830.86902 L 105.07873 830.86719 L 105.0769 830.86719 L 105.07507 830.86719 z M 122.33276 848.05164 L 122.33276 852.89661 C 122.33373 848.87941 122.68468 848.55343 122.71179 848.49659 L 122.71179 848.49476 L 122.71179 848.49292 L 122.71179 848.49109 L 122.71179 848.48926 L 122.71179 848.48743 L 122.70996 848.4856 C 122.69028 848.46851 122.58671 848.43707 122.33276 848.05164 z M 321.54418 891.98963 A 22.897776 22.897776 0 0 1 321.41784 892.06104 C 321.44045 892.04978 321.46305 892.0393 321.48559 892.02808 L 321.54418 891.98963 z M 281.29943 915.22571 C 275.44322 917.53504 269.52081 919.52317 263.58764 921.22242 A 22.897776 22.897776 0 0 0 263.58581 921.22425 C 239.25395 928.19214 214.59045 930.63845 190.64025 930.84278 A 22.897776 22.897776 0 0 1 190.45532 930.84278 C 139.69193 930.86633 88.93923 930.84556 38.1958 930.85193 L 38.1958 1047.2338 L 281.29943 915.22571 z "
       transform="translate(0,-308.26772)" />
    <path
       style="font-size:674.42px;line-height:1.25;font-family:'Liberation Mono';-inkscape-font-specification:'Liberation Mono';letter-spacing:0px;word-spacing:0px;display:inline;fill-opacity:1;stroke:none;stroke-width:0;stroke-linecap:round"
       sodipodi:type="inkscape:offset"
       inkscape:radius="-1.2614015"
       inkscape:original="M 578.66602 125.01367 C 556.15316 125.26318 533.46141 128.67572 512.32422 137.32031 C 496.00986 143.96426 480.78448 153.85973 467.98047 166.69141 C 454.13689 180.46329 443.2046 197.43011 435.04102 215.70898 C 424.34045 239.672 418.10106 265.69651 414.40234 291.92773 C 410.61909 319.11295 409.50425 346.66767 409.96484 374.13477 C 410.57614 405.10006 413.6075 436.16627 421.07812 466.12695 C 426.99021 489.72749 435.79929 512.65343 448.53516 532.92773 C 460.73764 552.4626 476.73943 569.32547 495.54102 581.31836 C 511.9974 591.88996 530.4101 598.63469 549.24414 602.06445 C 563.15331 604.59015 577.30364 605.47961 591.39453 604.98633 C 610.2747 604.25813 629.13652 600.19091 646.51758 592.07227 C 662.97489 584.44873 677.93308 573.23258 690.65039 559.62695 C 706.87935 542.3063 719.55183 521.4237 729.61719 499.37695 C 733.30275 491.29478 736.62046 483.02397 739.71094 474.65625 C 721.8189 466.73918 703.9275 458.82057 686.03516 450.9043 C 684.0057 456.48237 681.8513 462.14429 679.57031 467.52148 C 678.03798 471.1368 676.44023 474.70136 674.7793 478.18945 C 669.72914 488.75555 663.94004 498.94429 657.07031 508.24609 C 656.48025 509.03144 655.73232 510.04616 655.05664 510.89844 C 648.93231 518.81353 641.90361 525.94187 633.98047 531.71289 C 623.4847 539.46873 611.45259 544.86568 598.87305 546.96875 C 592.66354 548.05734 586.24207 548.28033 580.0332 548.01953 C 577.25891 547.90543 574.58738 547.70661 571.80664 547.40039 C 570.25235 547.22533 568.49078 546.98907 566.86328 546.73047 C 565.33306 546.48347 563.91335 546.22267 562.42969 545.92188 C 561.34407 545.68742 560.02468 545.40421 558.85547 545.10938 C 546.37067 542.07685 534.41314 536.23214 524.36328 527.61328 C 517.78648 522.01286 512.03352 515.31913 507.15625 507.96875 C 506.84742 507.4834 506.3834 506.79595 506.07031 506.29688 C 499.79825 496.41183 495.10245 485.44434 491.35352 474.1875 C 490.03515 470.18929 488.87076 466.25701 487.78516 462.16406 C 485.11867 452.13774 483.09493 441.7715 481.57422 431.4707 C 479.09547 414.70802 477.85426 397.76428 477.3418 380.78711 C 477.03262 370.0265 477.00449 359.06524 477.25781 348.22852 C 477.38879 342.05527 477.65066 335.76815 477.99219 329.54297 C 478.36363 323.28399 478.83936 316.84012 479.47656 310.53125 C 480.72175 298.07739 482.55454 285.5056 485.24219 273.32031 C 488.83263 257.16549 493.92898 241.22486 501.97461 226.99609 C 509.00103 214.67663 518.49142 203.88406 529.98047 196.38281 C 537.77511 191.24618 546.38548 187.6346 555.26562 185.41016 C 556.43858 185.12508 557.83405 184.79312 559.10547 184.53711 C 568.05134 182.70473 577.20014 182.07074 586.29297 182.47266 C 590.56515 182.68662 594.8229 183.23375 599.02344 184.10352 C 599.52363 184.22162 600.3464 184.39134 600.9707 184.53906 C 613.08474 187.36201 624.52442 193.28828 634.3125 201.49023 C 640.75458 206.878 646.71035 212.96529 651.87305 219.78711 C 652.34747 220.43781 653.02293 221.3094 653.55469 222.06445 C 662.87964 234.94059 669.54261 249.87991 674.17578 265.40234 C 674.36634 266.01239 674.43115 266.91346 675.1582 266.28711 C 693.82131 258.47091 712.48431 250.6532 731.14844 242.83984 C 727.37259 231.9896 723.06468 221.34354 717.94922 211.15039 C 708.94742 193.16091 697.46476 176.47615 683.2168 162.95508 C 669.90783 150.2488 654.22127 140.51477 637.41797 134.35742 C 618.57075 127.38175 598.52516 124.76897 578.66602 125.01367 z M 36.363281 132.19531 L 36.363281 134.14453 L 36.363281 598.27344 C 87.635715 598.26644 138.90729 598.28747 190.17969 598.26367 C 212.76955 598.07096 235.46862 595.74762 257.35352 589.48047 C 276.84135 583.89921 295.70894 574.9544 311.74219 561.58984 C 323.19521 552.09179 333.06314 540.23604 340.03125 526.52344 C 347.36903 512.21357 351.44122 496.10811 352.76562 479.84961 C 354.02898 464.34108 353.28803 448.49223 349.25586 433.48633 C 345.51212 419.293 338.771 406.07012 329.78906 394.97461 C 322.0075 385.3126 312.73528 377.06022 302.44922 370.70312 C 287.5662 361.42779 270.9169 355.90222 254.05469 352.75977 C 253.00299 352.54995 251.66766 352.37197 250.78711 352.16016 C 265.07397 347.94146 278.81496 341.11771 290.52344 331.22656 C 302.76592 320.9296 312.84311 307.48367 319.05664 292.06641 C 324.88217 277.77304 327.35226 262.07088 327.36719 246.50391 C 327.41779 230.65224 325.06816 214.59866 319.0293 200.07227 C 313.83504 187.42567 305.79287 176.21768 295.93359 167.42773 C 283.3643 156.1483 268.26978 148.63087 252.73828 143.5 C 234.44125 137.48271 215.39574 134.56431 196.35547 133.15625 C 185.09375 132.32301 173.80275 132.13703 162.51758 132.19531 L 36.363281 132.19531 z M 100.42188 188.51367 L 169.19531 188.51367 C 173.15803 188.52067 177.08384 188.59497 181.00195 188.77148 C 184.97012 188.96045 188.82668 189.21972 192.79297 189.62891 C 204.40592 190.82454 216.1768 193.01719 227.21289 197.45312 C 233.44954 199.97764 239.46514 203.27508 244.7832 207.63672 C 247.25364 209.69877 249.52362 212.04142 251.53711 214.62109 C 251.85658 215.04411 252.38227 215.73013 252.76172 216.27539 C 258.5021 224.32525 261.45924 234.3265 262.48438 244.34375 C 263.38358 253.4309 263.11439 262.6775 261.51953 271.6582 C 259.76115 281.37894 256.05343 290.77403 250.21484 298.45312 C 243.74539 307.06218 234.92223 313.2929 225.49805 317.47461 C 213.48656 322.80505 200.55811 325.25551 187.67188 326.39648 C 178.79629 327.21763 169.88213 327.15653 160.98242 327.13867 L 100.42188 327.13867 L 100.42188 188.51367 z M 100.42188 382.08789 L 178.375 382.08789 C 188.31641 382.10149 198.20326 382.56589 208.11719 383.80078 C 209.85143 384.01139 211.44333 384.24622 213.19141 384.5 C 214.27667 384.67729 215.60795 384.87683 216.78516 385.0918 C 218.61808 385.41345 220.53217 385.78004 222.25781 386.14648 C 234.95416 388.8437 247.53439 393.13757 258.62891 400.47852 C 267.64294 406.45123 275.56879 414.60658 280.73828 424.65234 C 282.96591 428.90558 284.73367 433.64204 285.94727 438.22461 C 286.22994 439.32223 286.45287 440.23215 286.69531 441.32617 C 287.01864 442.8256 287.35367 444.56199 287.59375 446.17188 C 288.58813 452.48624 288.77466 459.13711 288.5293 465.38477 C 288.20902 473.15399 287.15854 480.91971 285.01562 488.35547 C 284.73951 489.304 284.41789 490.35539 284.06641 491.41406 C 283.49175 493.12181 282.91564 494.66369 282.2168 496.34766 C 280.75402 499.85938 278.91524 503.42329 276.82031 506.65625 C 272.73735 513.02413 267.38432 518.65895 261.4043 523.06641 C 251.82097 530.1126 240.71627 534.33314 229.48438 537.0957 C 217.47097 540.02632 205.16204 541.30183 192.87109 541.77344 C 186.94156 541.99744 180.829 541.94718 174.82812 541.95117 L 100.42188 541.95117 L 100.42188 382.08789 z "
       xlink:href="#text4140-4"
       id="path1"
       d="m 578.67969,126.27539 c -22.39481,0.2482 -44.92683,3.64401 -65.87891,12.21289 -16.16306,6.58233 -31.24785,16.38646 -43.92773,29.09375 a 1.2615277,1.2615277 0 0 1 -0.004,0.004 c -13.71174,13.64072 -24.56467,30.47533 -32.67578,48.63672 -10.63637,23.81924 -16.85357,49.72962 -20.54102,75.88086 -3.77166,27.10285 -4.88555,54.59157 -4.42578,82.00976 0.61018,30.89837 3.63601,61.87045 11.07617,91.70899 l -0.002,-0.002 c 5.88711,23.50083 14.65534,46.3021 27.30274,66.43555 a 1.2615277,1.2615277 0 0 1 0.002,0.004 c 12.11277,19.39125 27.99009,36.11699 46.61328,47.99609 a 1.2615277,1.2615277 0 0 1 0.004,0.002 c 16.30112,10.47186 34.55691,17.1628 53.24609,20.56641 13.81114,2.5079 27.86985,3.39243 41.87695,2.90234 18.73175,-0.72247 37.42829,-4.75796 54.63867,-12.79687 a 1.2615277,1.2615277 0 0 1 0.004,-0.002 c 16.29366,-7.54773 31.12371,-18.6643 43.74024,-32.16211 a 1.2615277,1.2615277 0 0 1 0.002,-0.002 c 16.10709,-17.19059 28.71406,-37.95352 38.73828,-59.91015 3.50616,-7.68877 6.66621,-15.56356 9.63086,-23.5293 -17.12279,-7.57675 -34.24428,-15.15646 -51.36719,-22.73242 -1.89843,5.1798 -3.87892,10.42165 -6,15.42187 -1.53902,3.6311 -3.14511,7.21299 -4.81445,10.71875 a 1.2615277,1.2615277 0 0 1 0,0.002 c -5.07585,10.61984 -10.90198,20.87825 -17.83203,30.26172 a 1.2615277,1.2615277 0 0 1 -0.008,0.008 c -0.58411,0.77743 -1.33624,1.79861 -2.0332,2.67773 -6.18368,7.98981 -13.29057,15.2007 -21.32226,21.05078 -10.63631,7.85795 -22.84159,13.33829 -35.63086,15.47852 -0.002,3.3e-4 -0.004,-3.4e-4 -0.006,0 -0.002,3.4e-4 -0.004,0.002 -0.006,0.002 -6.32267,1.1073 -12.82805,1.32984 -19.09961,1.06641 -2.80118,-0.11521 -5.50344,-0.31566 -8.3125,-0.625 a 1.2615277,1.2615277 0 0 1 -0.002,0 c -1.57439,-0.17733 -3.35078,-0.41569 -5,-0.67774 a 1.2615277,1.2615277 0 0 1 -0.004,0 c -1.54695,-0.2497 -2.98434,-0.51464 -4.48242,-0.81836 a 1.2615277,1.2615277 0 0 1 -0.0156,-0.004 c -1.08436,-0.23419 -2.41552,-0.51926 -3.61719,-0.82227 -12.6622,-3.0775 -24.79585,-9.00719 -35.0039,-17.76172 l 0.002,0.004 c -6.67808,-5.68667 -12.50459,-12.47103 -17.43945,-19.9082 a 1.2615277,1.2615277 0 0 1 -0.0137,-0.0195 c -0.2902,-0.45607 -0.75207,-1.14199 -1.08594,-1.67382 l -0.004,-0.006 c -6.3437,-9.9994 -11.07535,-21.0597 -14.8457,-32.38086 a 1.2615277,1.2615277 0 0 1 0,-0.004 c -1.32623,-4.02203 -2.49827,-7.97827 -3.58984,-12.09375 -2.68125,-10.08182 -4.71377,-20.49419 -6.24024,-30.83398 -2.48783,-16.82409 -3.73254,-33.81681 -4.24609,-50.83008 -0.30983,-10.783 -0.33782,-21.76623 -0.084,-32.625 0.13137,-6.19012 0.39422,-12.48891 0.73633,-18.72461 a 1.2615277,1.2615277 0 0 1 0,-0.006 c 0.37214,-6.27081 0.84886,-12.73126 1.48828,-19.0625 v -0.002 c 1.24902,-12.49154 3.08823,-25.11039 5.78907,-37.35547 a 1.2615277,1.2615277 0 0 1 0.002,-0.002 c 3.60716,-16.23004 8.73326,-32.2904 16.86523,-46.67187 a 1.2615277,1.2615277 0 0 1 0.002,-0.004 c 7.11059,-12.46703 16.72371,-23.41094 28.4082,-31.04101 7.92419,-5.222 16.66599,-8.88664 25.67187,-11.14258 a 1.2615277,1.2615277 0 0 1 0.008,-0.004 c 1.17769,-0.28623 2.58744,-0.6204 3.89062,-0.88281 9.05364,-1.85393 18.30554,-2.49396 27.49219,-2.08789 a 1.2615277,1.2615277 0 0 1 0.006,0 c 4.33766,0.21724 8.66041,0.77346 12.92383,1.65625 a 1.2615277,1.2615277 0 0 1 0.0332,0.006 c 0.46215,0.10912 1.29393,0.28245 1.94922,0.4375 12.32106,2.87194 23.9311,8.89182 33.85937,17.21094 6.50726,5.44228 12.53131,11.59582 17.75782,18.50195 a 1.2615277,1.2615277 0 0 1 0.0137,0.0195 c 0.45454,0.62343 1.13518,1.50041 1.69336,2.29297 9.38565,12.96397 16.07384,27.96014 20.73437,43.51367 18.07198,-7.56866 36.14366,-15.13894 54.2168,-22.70508 -3.66755,-10.42257 -7.8057,-20.64764 -12.71484,-30.42968 a 1.2615277,1.2615277 0 0 1 -0.002,-0.002 c -8.94937,-17.88471 -20.35507,-34.44836 -34.47265,-47.8457 a 1.2615277,1.2615277 0 0 1 -0.002,-0.002 c -13.18363,-12.58662 -28.72315,-22.22933 -45.36133,-28.32617 a 1.2615277,1.2615277 0 0 1 -0.004,0 c -18.67033,-6.9102 -38.56076,-9.50884 -58.29883,-9.26563 a 1.2615277,1.2615277 0 0 1 -0.002,0 z M 37.625,133.45703 v 0.6875 462.86719 c 50.848385,-0.006 101.69578,0.0138 152.54297,-0.01 22.51059,-0.19203 45.09559,-2.50806 66.83789,-8.73437 19.35206,-5.54238 38.05571,-14.41632 53.92773,-27.64649 a 1.2615277,1.2615277 0 0 1 0.004,-0.002 c 11.33005,-9.39607 21.0855,-21.12237 27.96875,-34.66797 a 1.2615277,1.2615277 0 0 1 0.002,-0.004 c 7.2489,-14.13654 11.28673,-30.08208 12.59961,-46.19922 1.25448,-15.39944 0.51376,-31.10526 -3.4707,-45.9336 a 1.2615277,1.2615277 0 0 1 0,-0.006 c -3.69778,-14.01907 -10.36074,-27.08653 -19.22852,-38.04101 a 1.2615277,1.2615277 0 0 1 -0.002,-0.002 c -7.6946,-9.55404 -16.86233,-17.71156 -27.02148,-23.99023 a 1.2615277,1.2615277 0 0 1 -0.004,-0.002 C 287.06576,362.60251 270.57163,357.12106 253.82422,354 a 1.2615277,1.2615277 0 0 1 -0.0156,-0.004 c -0.98501,-0.19651 -2.31014,-0.36732 -3.3164,-0.60937 a 1.2615277,1.2615277 0 0 1 -0.0625,-2.43555 c 14.14322,-4.17629 27.724,-10.92575 39.27929,-20.6875 a 1.2615277,1.2615277 0 0 1 0.002,-0.002 c 12.08946,-10.16826 22.04395,-23.45149 28.17578,-38.66602 a 1.2615277,1.2615277 0 0 1 0.002,-0.006 c 5.7507,-14.10977 8.202,-29.65354 8.2168,-45.08789 a 1.2615277,1.2615277 0 0 1 0,-0.002 c 0.0502,-15.72431 -2.28331,-31.61405 -8.24024,-45.94336 a 1.2615277,1.2615277 0 0 1 -0.002,-0.006 c -5.11992,-12.46561 -13.05349,-23.51939 -22.76953,-32.18164 a 1.2615277,1.2615277 0 0 1 -0.002,-0.002 c -12.40239,-11.12965 -27.33471,-18.57588 -42.74805,-23.66797 -18.16524,-5.97395 -37.10791,-8.88199 -56.08203,-10.28516 -11.21362,-0.82968 -22.47132,-1.01521 -33.73828,-0.95703 a 1.2615277,1.2615277 0 0 1 -0.006,0 z m 62.79688,53.79492 h 68.77343 a 1.2615277,1.2615277 0 0 1 0.002,0 c 3.97701,0.007 7.92127,0.0823 11.86132,0.25977 a 1.2615277,1.2615277 0 0 1 0.004,0 c 3.98414,0.18973 7.86416,0.45111 11.85937,0.86328 11.68286,1.20283 23.57111,3.41016 34.76172,7.9082 a 1.2615277,1.2615277 0 0 1 0.002,0 c 6.32926,2.56201 12.46077,5.91917 17.89843,10.37891 a 1.2615277,1.2615277 0 0 1 0.008,0.006 c 2.53943,2.11963 4.87093,4.52756 6.93945,7.17773 a 1.2615277,1.2615277 0 0 1 0.0117,0.0156 c 0.31367,0.41534 0.8458,1.10692 1.2539,1.69336 5.90283,8.2832 8.9004,18.48779 9.94141,28.66015 a 1.2615277,1.2615277 0 0 1 0.002,0.004 c 0.90989,9.19514 0.63814,18.55675 -0.97851,27.66016 a 1.2615277,1.2615277 0 0 1 0,0.004 c -1.78833,9.88628 -5.56008,19.46511 -11.54297,27.33399 -6.62435,8.81278 -15.62904,15.15933 -25.20898,19.41015 -12.18722,5.40843 -25.25612,7.87697 -38.22657,9.02539 -8.95715,0.82844 -17.90839,0.7659 -26.80273,0.74805 h -60.55859 a 1.2615277,1.2615277 0 0 1 -1.261724,-1.26172 v -138.625 a 1.2615277,1.2615277 0 0 1 1.261724,-1.26172 z m 0,193.57422 H 178.375 a 1.2615277,1.2615277 0 0 1 0.002,0 c 9.97826,0.0136 19.91637,0.48021 29.89258,1.72266 1.75393,0.213 3.35717,0.4496 5.10352,0.70312 a 1.2615277,1.2615277 0 0 1 0.0215,0.004 c 1.0719,0.17511 2.41035,0.37532 3.61719,0.5957 1.84396,0.32368 3.76648,0.69078 5.50781,1.06055 12.79686,2.71857 25.53299,7.05548 36.80469,14.51367 a 1.2615277,1.2615277 0 0 1 0.002,0.002 c 9.17095,6.07669 17.25078,14.38127 22.5332,24.64649 2.27706,4.34923 4.07123,9.16318 5.30665,13.82812 a 1.2615277,1.2615277 0 0 1 0.002,0.008 c 0.28471,1.10555 0.51395,2.03333 0.75976,3.14257 a 1.2615277,1.2615277 0 0 1 0,0.008 c 0.32778,1.52007 0.66825,3.27743 0.91407,4.92578 1.01044,6.42193 1.19486,13.14266 0.94726,19.44726 a 1.2615277,1.2615277 0 0 1 0,0.004 c -0.32353,7.84807 -1.38329,15.71266 -3.56054,23.26758 a 1.2615277,1.2615277 0 0 1 -0.002,0.004 c -0.27966,0.96075 -0.60522,2.02426 -0.96289,3.10157 a 1.2615277,1.2615277 0 0 1 -0.002,0.006 c -0.58274,1.73175 -1.16966,3.30656 -1.87891,5.01562 a 1.2615277,1.2615277 0 0 1 -0.002,0 c -1.49058,3.57845 -3.36014,7.20446 -5.50195,10.50977 -4.17048,6.50308 -9.62405,12.24249 -15.72657,16.74023 -9.76432,7.17927 -21.0332,11.45061 -32.36718,14.23828 a 1.2615277,1.2615277 0 0 1 -0.002,0 c -12.12427,2.95767 -24.51749,4.23918 -36.86328,4.71289 a 1.2615277,1.2615277 0 0 1 -0.002,0 c -5.96932,0.22551 -12.09658,0.17571 -18.08985,0.17969 h -74.40624 a 1.2615277,1.2615277 0 0 1 -1.261724,-1.26172 V 382.08789 a 1.2615277,1.2615277 0 0 1 1.261724,-1.26172 z"
       inkscape:label="path1"
       inkscape:href="#text4140-4"
       transform="translate(0.27737515,2.6785714)" />
    <path
       style="font-size:674.42px;line-height:1.25;font-family:'Liberation Mono';-inkscape-font-specification:'Liberation Mono';letter-spacing:0px;word-spacing:0px;display:inline;fill:none;fill-opacity:1;stroke:none;stroke-width:0;stroke-linecap:round"
       sodipodi:type="inkscape:offset"
       inkscape:radius="22.895487"
       inkscape:original="M 578.95703 128.95312 C 556.56223 129.20133 534.0302 132.59713 513.07812 141.16602 C 496.91507 147.74835 481.83028 157.55248 469.15039 170.25977 A 1.2615277 1.2615277 0 0 1 469.14648 170.26367 C 455.43474 183.9044 444.58181 200.73901 436.4707 218.90039 C 425.83434 242.71963 419.61713 268.63002 415.92969 294.78125 C 412.15803 321.8841 411.04414 349.37282 411.50391 376.79102 C 412.11409 407.68938 415.13991 438.66147 422.58008 468.5 L 422.57812 468.49805 C 428.46524 491.99887 437.23347 514.80014 449.88086 534.93359 A 1.2615277 1.2615277 0 0 1 449.88281 534.9375 C 461.99558 554.32876 477.8729 571.0545 496.49609 582.93359 A 1.2615277 1.2615277 0 0 1 496.5 582.93555 C 512.80112 593.40741 531.05691 600.09835 549.74609 603.50195 C 563.55723 606.00985 577.61594 606.89439 591.62305 606.4043 C 610.35479 605.68182 629.05134 601.64634 646.26172 593.60742 A 1.2615277 1.2615277 0 0 1 646.26562 593.60547 C 662.55928 586.05774 677.38934 574.94116 690.00586 561.44336 A 1.2615277 1.2615277 0 0 1 690.00781 561.44141 C 706.11491 544.25082 718.72188 523.48788 728.74609 501.53125 C 732.25226 493.84248 735.41231 485.9677 738.37695 478.00195 C 721.25416 470.4252 704.13268 462.84549 687.00977 455.26953 C 685.11134 460.44933 683.13085 465.69118 681.00977 470.69141 C 679.47075 474.32251 677.86466 477.90439 676.19531 481.41016 A 1.2615277 1.2615277 0 0 1 676.19531 481.41211 C 671.11947 492.03195 665.29333 502.29035 658.36328 511.67383 A 1.2615277 1.2615277 0 0 1 658.35547 511.68164 C 657.77135 512.45908 657.01922 513.48026 656.32227 514.35938 C 650.13859 522.34918 643.03169 529.56007 635 535.41016 C 624.36369 543.26811 612.15842 548.74844 599.36914 550.88867 C 599.36723 550.88901 599.36519 550.88834 599.36328 550.88867 C 599.36126 550.88901 599.35944 550.89029 599.35742 550.89062 C 593.03475 551.99792 586.52938 552.22046 580.25781 551.95703 C 577.45663 551.84183 574.75438 551.64137 571.94531 551.33203 A 1.2615277 1.2615277 0 0 1 571.94336 551.33203 C 570.36897 551.15471 568.59258 550.91635 566.94336 550.6543 A 1.2615277 1.2615277 0 0 1 566.93945 550.6543 C 565.3925 550.4046 563.95511 550.13965 562.45703 549.83594 A 1.2615277 1.2615277 0 0 1 562.44141 549.83203 C 561.35704 549.59784 560.02588 549.31278 558.82422 549.00977 C 546.16201 545.93227 534.02836 540.00257 523.82031 531.24805 L 523.82227 531.25195 C 517.14418 525.56528 511.31768 518.78093 506.38281 511.34375 A 1.2615277 1.2615277 0 0 1 506.36914 511.32422 C 506.07894 510.86815 505.61708 510.18222 505.2832 509.65039 L 505.2793 509.64453 C 498.93559 499.64514 494.20394 488.58483 490.43359 477.26367 A 1.2615277 1.2615277 0 0 1 490.43359 477.25977 C 489.10737 473.23773 487.93532 469.28149 486.84375 465.16602 C 484.1625 455.0842 482.12998 444.67183 480.60352 434.33203 C 478.11569 417.50795 476.87097 400.51522 476.35742 383.50195 C 476.0476 372.71896 476.0196 361.73572 476.27344 350.87695 C 476.4048 344.68684 476.66766 338.38804 477.00977 332.15234 A 1.2615277 1.2615277 0 0 1 477.00977 332.14648 C 477.38191 325.87567 477.85862 319.41522 478.49805 313.08398 L 478.49805 313.08203 C 479.74706 300.59049 481.58627 287.97164 484.28711 275.72656 A 1.2615277 1.2615277 0 0 1 484.28906 275.72461 C 487.89622 259.49456 493.02232 243.43421 501.1543 229.05273 A 1.2615277 1.2615277 0 0 1 501.15625 229.04883 C 508.26684 216.58179 517.87997 205.63788 529.56445 198.00781 C 537.48864 192.78581 546.23045 189.12117 555.23633 186.86523 A 1.2615277 1.2615277 0 0 1 555.24414 186.86133 C 556.42184 186.5751 557.83158 186.24092 559.13477 185.97852 C 568.18841 184.12459 577.4403 183.48456 586.62695 183.89062 A 1.2615277 1.2615277 0 0 1 586.63281 183.89062 C 590.97047 184.10786 595.29322 184.66409 599.55664 185.54688 A 1.2615277 1.2615277 0 0 1 599.58984 185.55273 C 600.05199 185.66185 600.88378 185.83518 601.53906 185.99023 C 613.86012 188.86218 625.47017 194.88205 635.39844 203.20117 C 641.9057 208.64345 647.92975 214.797 653.15625 221.70312 A 1.2615277 1.2615277 0 0 1 653.16992 221.72266 C 653.62446 222.34609 654.3051 223.22307 654.86328 224.01562 C 664.24893 236.97959 670.93713 251.97576 675.59766 267.5293 C 693.66963 259.96063 711.74132 252.39036 729.81445 244.82422 C 726.1469 234.40165 722.00875 224.17657 717.09961 214.39453 A 1.2615277 1.2615277 0 0 1 717.09766 214.39258 C 708.14828 196.50787 696.74258 179.94422 682.625 166.54688 A 1.2615277 1.2615277 0 0 1 682.62305 166.54492 C 669.43941 153.9583 653.89989 144.31559 637.26172 138.21875 A 1.2615277 1.2615277 0 0 1 637.25781 138.21875 C 618.58748 131.30855 598.69705 128.70992 578.95898 128.95312 A 1.2615277 1.2615277 0 0 1 578.95703 128.95312 z M 37.902344 136.13477 L 37.902344 136.82227 L 37.902344 599.68945 C 88.750728 599.68296 139.59812 599.70328 190.44531 599.67969 C 212.9559 599.48765 235.54091 597.17163 257.2832 590.94531 C 276.63527 585.40294 295.33891 576.529 311.21094 563.29883 A 1.2615277 1.2615277 0 0 1 311.21484 563.29688 C 322.54489 553.90081 332.30035 542.1745 339.18359 528.62891 A 1.2615277 1.2615277 0 0 1 339.18555 528.625 C 346.43444 514.48846 350.47227 498.54292 351.78516 482.42578 C 353.03963 467.02635 352.29891 451.32053 348.31445 436.49219 A 1.2615277 1.2615277 0 0 1 348.31445 436.48633 C 344.61668 422.46726 337.95371 409.39979 329.08594 398.44531 A 1.2615277 1.2615277 0 0 1 329.08398 398.44336 C 321.38938 388.88932 312.22165 380.73179 302.0625 374.45312 A 1.2615277 1.2615277 0 0 1 302.05859 374.45117 C 287.3431 365.28025 270.84898 359.79879 254.10156 356.67773 A 1.2615277 1.2615277 0 0 1 254.08594 356.67383 C 253.10092 356.47731 251.77579 356.3065 250.76953 356.06445 A 1.2615277 1.2615277 0 0 1 250.70703 353.62891 C 264.85026 349.45262 278.43103 342.70315 289.98633 332.94141 A 1.2615277 1.2615277 0 0 1 289.98828 332.93945 C 302.07774 322.7712 312.03224 309.48797 318.16406 294.27344 A 1.2615277 1.2615277 0 0 1 318.16602 294.26758 C 323.91672 280.15781 326.36801 264.61404 326.38281 249.17969 A 1.2615277 1.2615277 0 0 1 326.38281 249.17773 C 326.43301 233.45343 324.09951 217.56368 318.14258 203.23438 A 1.2615277 1.2615277 0 0 1 318.14062 203.22852 C 313.0207 190.7629 305.08714 179.70912 295.37109 171.04688 A 1.2615277 1.2615277 0 0 1 295.36914 171.04492 C 282.96676 159.91527 268.03444 152.46905 252.62109 147.37695 C 234.45585 141.403 215.51319 138.49497 196.53906 137.0918 C 185.32544 136.26212 174.06775 136.07658 162.80078 136.13477 A 1.2615277 1.2615277 0 0 1 162.79492 136.13477 L 37.902344 136.13477 z M 100.69922 189.92969 L 169.47266 189.92969 A 1.2615277 1.2615277 0 0 1 169.47461 189.92969 C 173.45162 189.93671 177.39588 190.01195 181.33594 190.18945 A 1.2615277 1.2615277 0 0 1 181.33984 190.18945 C 185.32398 190.37918 189.20401 190.64056 193.19922 191.05273 C 204.88207 192.25556 216.77033 194.4629 227.96094 198.96094 A 1.2615277 1.2615277 0 0 1 227.96289 198.96094 C 234.29215 201.52295 240.42366 204.88011 245.86133 209.33984 A 1.2615277 1.2615277 0 0 1 245.86914 209.3457 C 248.40857 211.46534 250.74008 213.87327 252.80859 216.52344 A 1.2615277 1.2615277 0 0 1 252.82031 216.53906 C 253.13399 216.95441 253.66611 217.64598 254.07422 218.23242 C 259.97704 226.51562 262.97461 236.72022 264.01562 246.89258 A 1.2615277 1.2615277 0 0 1 264.01758 246.89648 C 264.92746 256.09163 264.65571 265.45324 263.03906 274.55664 A 1.2615277 1.2615277 0 0 1 263.03906 274.56055 C 261.25074 284.44683 257.47898 294.02566 251.49609 301.89453 C 244.87174 310.70732 235.86705 317.05386 226.28711 321.30469 C 214.09989 326.71311 201.031 329.18165 188.06055 330.33008 C 179.1034 331.15852 170.15215 331.09597 161.25781 331.07812 L 100.69922 331.07812 A 1.2615277 1.2615277 0 0 1 99.4375 329.81641 L 99.4375 191.19141 A 1.2615277 1.2615277 0 0 1 100.69922 189.92969 z M 100.69922 383.50391 L 178.65234 383.50391 A 1.2615277 1.2615277 0 0 1 178.6543 383.50391 C 188.63255 383.51756 198.57066 383.98411 208.54688 385.22656 C 210.3008 385.43956 211.90405 385.67616 213.65039 385.92969 A 1.2615277 1.2615277 0 0 1 213.67188 385.93359 C 214.74377 386.1087 216.08223 386.30892 217.28906 386.5293 C 219.13302 386.85297 221.05555 387.22007 222.79688 387.58984 C 235.59373 390.30842 248.32986 394.64533 259.60156 402.10352 A 1.2615277 1.2615277 0 0 1 259.60352 402.10547 C 268.77447 408.18215 276.8543 416.48673 282.13672 426.75195 C 284.41377 431.10118 286.20794 435.91514 287.44336 440.58008 A 1.2615277 1.2615277 0 0 1 287.44531 440.58789 C 287.73003 441.69344 287.95926 442.62122 288.20508 443.73047 A 1.2615277 1.2615277 0 0 1 288.20508 443.73828 C 288.53286 445.25835 288.87333 447.01572 289.11914 448.66406 C 290.12958 455.08599 290.314 461.80673 290.06641 468.11133 A 1.2615277 1.2615277 0 0 1 290.06641 468.11523 C 289.74288 475.96331 288.68312 483.8279 286.50586 491.38281 A 1.2615277 1.2615277 0 0 1 286.50391 491.38672 C 286.22424 492.34747 285.89868 493.41098 285.54102 494.48828 A 1.2615277 1.2615277 0 0 1 285.53906 494.49414 C 284.95632 496.2259 284.36941 497.80071 283.66016 499.50977 A 1.2615277 1.2615277 0 0 1 283.6582 499.50977 C 282.16763 503.08822 280.29806 506.71422 278.15625 510.01953 C 273.98577 516.52261 268.5322 522.26202 262.42969 526.75977 C 252.66536 533.93904 241.39649 538.21038 230.0625 540.99805 A 1.2615277 1.2615277 0 0 1 230.06055 540.99805 C 217.93628 543.95571 205.54305 545.23722 193.19727 545.71094 A 1.2615277 1.2615277 0 0 1 193.19531 545.71094 C 187.22599 545.93644 181.09874 545.88664 175.10547 545.89062 L 100.69922 545.89062 A 1.2615277 1.2615277 0 0 1 99.4375 544.62891 L 99.4375 384.76562 A 1.2615277 1.2615277 0 0 1 100.69922 383.50391 z "
       xlink:href="#path1"
       id="path4"
       inkscape:href="#path1"
       d="m 578.69531,106.05859 c -24.53299,0.27263 -49.96527,3.97247 -74.27344,13.91211 -0.003,0.001 -0.007,0.003 -0.01,0.004 -18.88966,7.69747 -36.52759,19.14703 -51.44922,34.0957 -16.08817,16.01571 -28.34161,35.21523 -37.39844,55.49414 -11.80247,26.43066 -18.41434,54.41548 -22.30664,82.01953 a 22.897776,22.897776 0 0 0 -0.006,0.041 c -3.97813,28.58657 -5.11509,57.25624 -4.64062,85.55078 a 22.897776,22.897776 0 0 0 0.002,0.0664 c 0.63372,32.09026 3.7645,64.76348 11.75195,96.79687 l 0.004,-0.002 a 22.897776,22.897776 0 0 0 0,0.0254 c 6.2641,25.00569 15.68059,49.73355 29.64844,72.20508 l -0.60742,-1.08008 c -20.28079,-40.48986 20.10722,40.49345 -0.0332,-0.0664 a 22.897776,22.897776 0 0 0 0.64063,1.14649 c 0.0416,0.0669 0.0736,0.13826 0.11523,0.20508 a 22.897776,22.897776 0 0 0 0.33203,0.59375 c 0.005,0.008 0.0109,0.014 0.0156,0.0215 13.73258,21.97774 31.82882,41.1853 53.66992,55.125 0.0114,0.007 0.0218,0.0161 0.0332,0.0234 a 22.897776,22.897776 0 0 0 1.21094,0.68554 22.897776,22.897776 0 0 0 0.36914,0.20899 22.897776,22.897776 0 0 0 0.50781,0.28906 c 18.54937,11.50424 38.84472,18.86889 59.37305,22.60742 a 22.897776,22.897776 0 0 0 0.0117,0.002 c 15.56734,2.8268 31.26331,3.79833 46.76758,3.25586 a 22.897776,22.897776 0 0 0 0.082,-0.002 c 21.41631,-0.82602 43.11522,-5.4427 63.41601,-14.91992 19.24431,-8.92045 36.35902,-21.82962 50.79297,-37.26758 6.3e-4,-6.7e-4 0.001,-0.001 0.002,-0.002 18.31976,-19.55266 32.08632,-42.4621 42.85742,-66.05469 a 22.897776,22.897776 0 0 0 0.004,-0.008 c 3.80003,-8.33316 7.15663,-16.71559 10.25586,-25.04297 a 22.897776,22.897776 0 0 0 -12.19336,-28.92383 c -17.12037,-7.57568 -34.24128,-15.15514 -51.36718,-22.73242 a 22.897776,22.897776 0 0 0 -30.76172,13.05859 c -1.8454,5.03512 -3.70458,9.93809 -5.58008,14.35938 a 22.897776,22.897776 0 0 0 -0.002,0.006 c -1.41272,3.33311 -2.87962,6.6048 -4.39258,9.7832 -0.004,0.009 -0.009,0.0183 -0.0137,0.0274 -4.59981,9.62041 -9.73343,18.58324 -15.55274,26.46875 -0.65973,0.87859 -1.28867,1.72167 -1.58984,2.10156 a 22.897776,22.897776 0 0 0 -0.16406,0.20898 c -5.06776,6.54794 -10.70743,12.19574 -16.69727,16.5586 a 22.897776,22.897776 0 0 0 -0.125,0.0918 c -7.99548,5.90695 -16.95185,9.82907 -25.80469,11.31055 a 22.897776,22.897776 0 0 0 -0.0273,0.004 c 0,0 -0.0175,0.004 -0.0176,0.004 a 22.897776,22.897776 0 0 0 -0.0742,0.0137 22.897776,22.897776 0 0 0 -0.006,0 22.897776,22.897776 0 0 0 -0.0566,0.01 c -4.20756,0.73688 -9.12134,0.95702 -14.18945,0.74414 a 22.897776,22.897776 0 0 0 -0.0195,-0.002 c -2.30695,-0.0949 -4.44158,-0.25328 -6.72266,-0.50391 -1.18986,-0.13448 -2.65018,-0.32952 -3.88867,-0.52539 -0.007,-0.001 -0.0128,-0.003 -0.0195,-0.004 -1.19252,-0.19275 -2.26848,-0.39136 -3.46484,-0.63281 -1.04778,-0.22689 -2.10309,-0.45958 -2.68165,-0.60547 a 22.897776,22.897776 0 0 0 -0.18945,-0.0469 c -9.36555,-2.27626 -18.22724,-6.64869 -25.50781,-12.89258 a 22.897776,22.897776 0 0 0 -0.0762,-0.0352 l 0.0176,-0.0137 c -3.17624,-2.70469 -6.1118,-5.98201 -8.91211,-9.48437 -2.09464,-3.04478 -3.85181,-5.57248 -6.60157,-9.47461 -4.32592,-7.34082 -7.95776,-15.72381 -10.98047,-24.79297 -1.1813,-3.58394 -2.21665,-7.07434 -3.19726,-10.77149 a 22.897776,22.897776 0 0 0 -0.004,-0.0156 c -2.41354,-9.07522 -4.29485,-18.66113 -5.71679,-28.29297 a 22.897776,22.897776 0 0 0 -0.002,-0.006 c -2.32155,-15.69965 -3.51343,-31.79255 -4.00781,-48.13867 -0.29814,-10.37642 -0.32652,-20.9728 -0.082,-31.43164 a 22.897776,22.897776 0 0 0 0.002,-0.0488 c 0.12432,-5.85834 0.37515,-11.89558 0.70508,-17.91601 0.35824,-6.02732 0.81273,-12.16646 1.4082,-18.0625 a 22.897776,22.897776 0 0 0 0.002,-0.0254 c 1.17835,-11.78493 2.90404,-23.52838 5.35937,-34.66796 3.3006,-14.85071 7.8699,-28.72184 14.42383,-40.32618 5.56569,-9.74907 12.92117,-17.89919 21.01953,-23.1875 a 22.897776,22.897776 0 0 0 0.0801,-0.0527 c 5.57023,-3.67075 11.90519,-6.36226 18.625,-8.04688 1.03591,-0.25062 2.15337,-0.51056 2.86719,-0.65429 a 22.897776,22.897776 0 0 0 0.0742,-0.0156 c 7.04201,-1.442 14.39034,-1.96518 21.81445,-1.64258 0.44273,0.0226 0.8832,0.13758 1.32617,0.16993 3.43773,0.66003 7.23421,1.34367 12.37695,2.22656 7.53117,2.22454 14.92573,6.12335 21.44727,11.58789 a 22.897776,22.897776 0 0 0 0.0176,0.0137 c 4.4721,3.7402 8.45756,7.88802 12.06445,12.2793 3.61522,5.18831 7.29692,10.42673 8.42188,11.92969 5.15698,8.7299 9.31811,18.61432 12.46875,29.1289 a 22.897776,22.897776 0 0 0 30.77539,14.54688 c 18.0731,-7.56915 36.14485,-15.14025 54.21484,-22.70508 a 22.897776,22.897776 0 0 0 12.75586,-28.71875 c -3.89863,-11.07925 -8.38019,-22.19627 -13.83984,-33.07813 -0.004,-0.007 -0.006,-0.0144 -0.01,-0.0215 a 22.897776,22.897776 0 0 0 -0.008,-0.0117 c -9.89398,-19.76475 -22.68038,-38.51723 -39.14453,-54.14844 -0.003,-0.003 -0.006,-0.007 -0.01,-0.01 -15.43713,-14.72966 -33.60533,-26.01937 -53.20703,-33.21094 l 0.0117,0.002 c -0.008,-0.003 -0.017,-0.005 -0.0254,-0.008 -0.014,-0.005 -0.0271,-0.0125 -0.041,-0.0176 a 22.897776,22.897776 0 0 0 -0.0371,-0.006 c -21.84231,-8.06692 -44.50385,-10.92362 -66.39844,-10.65625 z m 119.71485,43.90625 0.35351,0.34375 a 22.897776,22.897776 0 0 0 -0.33008,-0.32422 c -0.007,-0.007 -0.016,-0.0125 -0.0234,-0.0195 z M 37.902344,113.24023 a 22.897776,22.897776 0 0 0 -22.894531,22.89454 v 0.6875 462.86718 a 22.897776,22.897776 0 0 0 22.896484,22.89453 c 50.840336,-0.006 101.690413,0.0138 152.550783,-0.01 a 22.897776,22.897776 0 0 0 0.18554,0 c 23.95021,-0.20432 48.61346,-2.6493 72.94532,-9.61719 a 22.897776,22.897776 0 0 0 0.002,-0.002 c 21.79234,-6.24126 43.43398,-16.37921 62.21875,-32.01953 a 22.897776,22.897776 0 0 0 0.0234,-0.0156 c 0.008,-0.007 0.0153,-0.0148 0.0234,-0.0215 0.006,-0.005 0.0118,-0.009 0.0176,-0.0137 l -0.01,0.006 c 13.53807,-11.23415 25.29372,-25.30159 33.70898,-41.8457 8.85449,-17.27772 13.51384,-36.08395 15.03516,-54.75976 1.41139,-17.32574 0.66655,-35.5611 -4.14258,-53.5586 a 22.897776,22.897776 0 0 0 -0.01,-0.0801 c -0.006,-0.022 -0.0157,-0.0424 -0.0215,-0.0645 -0.003,-0.0103 -0.003,-0.0209 -0.006,-0.0312 l 0.002,0.0176 c -4.53469,-17.14635 -12.61631,-33.0186 -23.5332,-46.50977 l -0.002,-0.004 c -0.004,-0.005 -0.008,-0.0106 -0.0117,-0.0156 a 22.897776,22.897776 0 0 0 -0.0801,-0.0879 c -9.24063,-11.44334 -20.2633,-21.27673 -32.66016,-28.94531 -7.6e-4,-4.7e-4 -0.001,-0.001 -0.002,-0.002 -2.94231,-1.83268 -5.97715,-3.34693 -8.99414,-4.92579 -5e-4,-2.6e-4 -0.001,2.7e-4 -0.002,0 -0.003,-0.001 -0.005,-0.003 -0.008,-0.004 14.66004,-12.44397 26.69586,-28.49686 34.24023,-47.18945 0.001,-0.003 0.003,-0.005 0.004,-0.008 7.09808,-17.42946 9.87894,-35.82644 9.89843,-53.65234 0.055,-18.01805 -2.54985,-36.84791 -9.98047,-54.74024 -6.46519,-15.72076 -16.3673,-29.53086 -28.65625,-40.49609 -0.002,-0.002 -0.005,-0.004 -0.008,-0.006 -15.41721,-13.82677 -33.29623,-22.55305 -50.83008,-28.3457 a 22.897776,22.897776 0 0 0 -0.0293,-0.01 c -20.55781,-6.76078 -41.36822,-9.87704 -61.54492,-11.36914 -12.04874,-0.89147 -23.87216,-1.0757 -35.4336,-1.01758 z m 272.738276,40.74805 0.61915,0.58594 a 22.897776,22.897776 0 0 0 -0.59961,-0.57031 c -0.006,-0.006 -0.0132,-0.01 -0.0195,-0.0156 z m 28.73829,148.88867 c 0.007,-0.015 0.18815,-0.49935 0.27148,-0.72656 z m -25.24024,52.12696 c -0.013,-0.009 -0.70703,-0.39844 -1.04101,-0.58399 z M 637.22656,115.32422 c 45.28766,-0.0702 -45.22124,-0.0702 0.0664,0 l 3.65234,0.65625 a 22.897776,22.897776 0 0 0 -3.71875,-0.65625 z m -514.89453,75.86719 c 0.002,6.28465 0.86503,3.5303 0,4.84961 z m 216.9707,3.30273 0.24219,0.64648 a 22.897776,22.897776 0 0 0 -0.22656,-0.61132 c -0.005,-0.0119 -0.0107,-0.0232 -0.0156,-0.0352 z m 393.96875,3.69336 c 32.06289,31.99288 -31.95967,-32.02969 0.0332,0.0332 l 2.625,3.64453 a 22.897776,22.897776 0 0 0 -2.65821,-3.67773 z m -167.73632,9.125 c -40.42208,20.3602 40.42918,-20.01163 -0.13282,0.0684 l -2.30859,0.83984 a 22.897776,22.897776 0 0 0 2.44141,-0.9082 z m 27.69921,0.43945 c 0.93173,0.13375 2.21408,0.21475 1.67969,0.21485 0.20316,0.0456 0.32302,0.0742 0.4668,0.10547 -1.77908,-0.28802 -0.81619,-0.10917 -2.14649,-0.32032 z m 1.94336,0.26367 c 0.23568,0.0436 0.53256,0.10482 0.44532,0.0918 -0.26141,-0.0498 -0.0354,-0.0109 -0.30664,-0.0625 z m -494.47851,4.8086 h 4.84961 c -1.31931,0.86502 1.43504,0.002 -4.84961,0 z m 21.63281,0 h 47.10156 c 0.0134,2e-5 0.0257,-3e-5 0.0391,0 3.70021,0.007 7.29904,0.0792 10.83007,0.23828 6.4e-4,3e-5 0.001,-3e-5 0.002,0 3.66996,0.1755 7.08996,0.40919 10.54492,0.76562 a 22.897776,22.897776 0 0 0 0.004,0 c 10.41196,1.07199 20.16685,3.00281 28.55273,6.3711 4.5994,1.86509 8.60777,4.14034 11.85547,6.78906 0.73876,0.62154 1.37882,1.40146 2.05469,2.12891 1.38509,1.84995 1.84264,2.44683 3.16406,4.19922 2.32752,4.01053 4.10306,9.55331 4.7539,15.87695 0.71018,7.21503 0.47998,14.48284 -0.73632,21.3418 -1.24949,6.86588 -3.86635,13.07992 -7.22852,17.50195 a 22.897776,22.897776 0 0 0 -0.0742,0.0996 c -3.80879,5.06707 -9.47404,9.25872 -16.19336,12.24023 a 22.897776,22.897776 0 0 0 -0.002,0 c -9.00127,3.99457 -19.51381,6.13311 -30.95898,7.14649 a 22.897776,22.897776 0 0 0 -0.0899,0.008 c -7.45903,0.68988 -15.67563,0.67035 -24.64648,0.65234 a 22.897776,22.897776 0 0 0 -0.0469,0 h -38.92578 z m 58.63281,0.25195 c 0.65886,0.0128 0.31979,0.008 0,0 z m 44.00782,8.19922 a 22.897776,22.897776 0 0 0 2.94531,0.56836 c 0.001,0.002 0.005,0.006 0.006,0.008 z m 6.8125,6.11328 a 22.897776,22.897776 0 0 0 0.40625,0.31836 c -36.30267,-27.01967 35.95769,27.19828 -0.13477,-0.10156 z m 2.61523,2.75 a 22.897776,22.897776 0 0 0 0.14844,0.19922 c -0.0488,-0.064 -0.008,-0.009 -0.0566,-0.0723 -0.0809,-0.10953 -0.009,-0.0154 -0.0918,-0.12695 z m 0.29492,0.40625 c 0.0125,0.0159 0.0286,0.0271 0.041,0.043 0.28878,0.3863 0.62015,0.83077 0.54492,0.72266 a 22.897776,22.897776 0 0 0 0.14844,0.20898 c 0.038,0.0533 0.0697,0.12751 0.10742,0.18164 -0.58699,-0.79741 -0.13393,-0.19682 -0.8418,-1.15625 z m 399.5918,4.125 a 22.897776,22.897776 0 0 0 0.28711,0.40625 l -0.0527,-0.0723 c -0.11279,-0.15803 -0.019,-0.0238 -0.1289,-0.17774 -0.0922,-0.13449 -0.0112,-0.0187 -0.10547,-0.15625 z m 0.41797,0.6211 c 1.2067,1.54211 1.3012,1.73296 1.61328,2.15039 1.62049,2.2383 3.12139,4.62913 4.58008,7.06836 0.41297,0.50353 -1.12341,-1.81452 -6.19336,-9.21875 z m -113.05469,3.96484 c -20.1821,40.53919 20.28889,-40.40084 -0.0332,0.0684 l -0.36914,0.6875 a 22.897776,22.897776 0 0 0 0.40234,-0.75586 z m -279.20117,14.10156 a 22.897776,22.897776 0 0 0 1.12695,3.85156 c -20.40504,-40.4274 20.23184,40.43136 -0.0332,-0.0664 z m -2.14844,19.4375 c -0.0521,0.59896 -0.15625,1.75261 -0.15625,1.73047 0.0824,-0.9121 0.17706,-1.9609 0.15625,-1.73047 z m 263.55664,12.95703 -3.36328,6.14649 c -31.99288,32.06289 32.02969,-31.95968 -0.0332,0.0332 a 22.897776,22.897776 0 0 0 3.39648,-6.17969 z m -398.77929,22.03516 c 0.0131,0.003 0.0417,0.11521 0.4707,0.39648 h -4.84961 c 4.24109,-0.001 4.35172,-0.40188 4.37891,-0.39648 z m 17.2539,17.18359 c 0.85543,1.29828 0.002,-1.42505 0,4.84571 z m 377.57227,7.12891 c 0.10516,45.27644 0.10516,-45.17683 0,0.0996 l -0.0156,0.55273 a 22.897776,22.897776 0 0 0 0.0156,-0.65234 z m -240.80078,2.24414 0.40234,0.0859 c 43.94023,10.6736 -43.53287,-11.16708 0.26758,0.0664 a 22.897776,22.897776 0 0 0 -0.66992,-0.15234 z m 2.31054,39.78516 c -1.12474,0.47411 -2.43575,0.928 -4.1914,1.44921 1.40621,-0.41557 2.7901,-0.9887 4.1914,-1.44921 z m 83.80274,8.06836 c 32.14467,31.91065 -32.04146,-31.94782 0.0332,0.0332 l 0.77734,0.86328 a 22.897776,22.897776 0 0 0 -0.81054,-0.89648 z m -222.88477,2.56835 c 0.002,6.27076 0.85543,3.54744 0,4.84571 z m -21.63281,21.63282 h 4.84961 c -1.31929,0.86502 1.43505,0.002 -4.84961,0 z m 21.63281,0 h 56.29102 c 0.01,1e-5 0.0194,-2e-5 0.0293,0 8.97515,0.0131 17.66182,0.45158 26.20118,1.47265 6.64637,1.23155 14.6173,2.67596 16.74218,2.9961 9.53274,2.31817 18.19795,5.58646 25.36133,10.32422 0.003,0.002 0.007,0.004 0.01,0.006 6.32169,4.19083 11.57921,9.74806 14.8125,16.03125 a 22.897776,22.897776 0 0 0 0.0742,0.14257 c 1.34483,2.56867 2.61809,5.91772 3.44726,9.03907 0.22294,0.86808 0.36783,1.45764 0.5293,2.18164 0.24811,1.15327 0.50458,2.51078 0.64453,3.44922 a 22.897776,22.897776 0 0 0 0.0273,0.18164 c 0.69397,4.41055 0.89004,9.742 0.6875,14.95117 -0.26459,6.4152 -1.12834,12.46748 -2.67968,17.85547 -0.20667,0.7084 -0.44471,1.4751 -0.68165,2.1914 -0.43053,1.27765 -0.80076,2.26849 -1.30468,3.48438 a 22.897776,22.897776 0 0 0 0,0.002 c -0.98855,2.37324 -2.28923,4.86624 -3.58203,6.86133 a 22.897776,22.897776 0 0 0 -0.0586,0.0918 c -2.57709,4.01848 -6.17369,7.82083 -10.02929,10.66406 -6.47121,4.75424 -14.7582,8.0989 -24.21875,10.42969 -10.11068,2.46645 -20.95678,3.64225 -32.30469,4.07812 -0.003,1.3e-4 -0.006,-1.3e-4 -0.01,0 -5.2446,0.19783 -11.0939,0.16008 -17.21484,0.16406 h -52.77344 z m 87.05664,2.02734 a 22.897776,22.897776 0 0 0 0.48242,0.084 l -0.11328,-0.0176 c -0.17774,-0.0307 -0.0276,-0.003 -0.20117,-0.0332 -0.14583,-0.0278 -0.0192,-0.005 -0.16797,-0.0332 z m 0.45117,0.0898 c 0.13836,0.0201 0.23,0.03 0.37305,0.0508 1.20888,0.19602 2.33726,0.37208 2.96289,0.48632 a 22.897776,22.897776 0 0 0 0.1543,0.0274 c 1.60889,0.28241 3.30557,0.60826 4.70898,0.90625 1.16441,0.24737 2.2632,0.56637 3.40235,0.84179 0.96983,0.12825 -1.86971,-0.45594 -11.60157,-2.3125 z m 33.59766,9.80274 a 22.897776,22.897776 0 0 0 2.63086,2.14648 l -2.59766,-2.11328 c -32.14467,-31.91065 32.04146,31.94782 -0.0332,-0.0332 z m 127.41211,15.41992 0.35937,2.70117 c 0.10516,45.27644 0.10516,-45.17683 0,0.0996 a 22.897776,22.897776 0 0 0 -0.35937,-2.80078 z m -105.53906,9.92969 a 22.897776,22.897776 0 0 0 0.26172,2.49609 l -0.26172,-2.36328 c -0.14012,-45.2652 -0.14012,45.13239 0,-0.13281 z m 1.8789,23.54492 c -0.0411,2.07548 0.007,-0.33691 0,0 z m 245.58399,6.61133 0.55468,3.4043 c 0.07,45.28771 0.07,-45.22131 0,0.0664 a 22.897776,22.897776 0 0 0 -0.55468,-3.4707 z m 141.64453,2.65039 c -0.3724,1.65104 -1.11719,4.93099 -1.11719,4.91992 z m -370.77539,0.14062 c 0.0111,0 -0.007,0.0117 -0.0274,0.0176 z m -17.60938,4.51758 a 22.897776,22.897776 0 0 0 -0.85742,2.1875 L 266,481.19922 c 20.14043,-40.55986 -20.24758,40.42345 0.0332,-0.0664 z m 376.20313,14.28906 a 22.897776,22.897776 0 0 0 -1.10742,1.27149 l 0.97461,-1.13867 c 31.85403,-32.13416 -32.00135,31.72122 0.13281,-0.13282 z m -117.22071,2.61524 c 0.097,0.13578 0.0165,0.0196 0.11133,0.15234 0.10769,0.15705 0.0125,0.0224 0.12305,0.1836 l 0.0898,0.13672 a 22.897776,22.897776 0 0 0 -0.32422,-0.47266 z m 0.20899,0.28711 c 0.73726,1.03181 0.27132,0.35836 0.88086,1.20898 -0.20374,-0.29857 -0.44387,-0.54524 -0.64453,-0.84765 a 22.897776,22.897776 0 0 0 -0.0254,-0.0371 c -0.10389,-0.16068 -0.13149,-0.20282 -0.21094,-0.32422 z m -295.17969,19.7793 c 0.0111,0 -1.32617,0.16276 -2.00586,0.24414 z m -124.96679,4.49609 c 0.0131,0.003 0.0417,0.11521 0.4707,0.39648 h -4.84961 c 4.24109,-0.001 4.35172,-0.40188 4.37891,-0.39648 z m 462.43359,4.91016 0.36328,0.0801 c 43.93379,10.70003 -43.52606,-11.19155 0.26758,0.0684 a 22.897776,22.897776 0 0 0 -0.63086,-0.14843 z m -0.60352,0.25 c 0.88296,0.059 3.24862,0.25498 2.14063,0.16601 a 22.897776,22.897776 0 0 0 -2.14063,-0.16601 z m 32.91992,0.23828 c 0.0222,4.4e-4 0.0115,0.001 0.0332,0.002 -0.27008,-0.005 -0.68995,0.0546 -1.20508,0.0898 0.49412,-0.0346 0.91367,-0.097 1.17187,-0.0918 z m -27.90039,0.43945 c 0.91972,0.047 -0.01,-0.001 1.00782,0.0547 a 22.897776,22.897776 0 0 0 -1.00782,-0.0547 z m 21.07618,0.53906 c -0.58499,0.1517 -1.03123,0.24006 -1.3125,0.33985 0.0277,-0.01 0.0142,-0.005 0.043,-0.0156 0.27218,-0.0961 0.70872,-0.18004 1.26954,-0.32422 z m -233.33399,9.87696 c -20.22329,40.51857 20.32849,-40.38182 -0.0351,0.0664 l -0.0527,0.10742 c 0.004,-0.009 0.009,-0.0167 0.0137,-0.0254 a 22.897776,22.897776 0 0 0 0.0742,-0.14843 z m -237.33789,0.92968 c 0.85543,1.29828 0.002,-1.42505 0,4.84571 z m 201.66406,42.33008 -2.50976,1.64649 c -40.4692,20.32209 40.47083,-20.1489 -0.0684,0.0332 a 22.897776,22.897776 0 0 0 2.57812,-1.67969 z" />
  </g>
</svg>
