<?xml version="1.0" encoding="UTF-8" standalone="no"?>
<svg
   xmlns:dc="http://purl.org/dc/elements/1.1/"
   xmlns:cc="http://creativecommons.org/ns#"
   xmlns:rdf="http://www.w3.org/1999/02/22-rdf-syntax-ns#"
   xmlns:svg="http://www.w3.org/2000/svg"
   xmlns="http://www.w3.org/2000/svg"
   xmlns:sodipodi="http://sodipodi.sourceforge.net/DTD/sodipodi-0.dtd"
   xmlns:inkscape="http://www.inkscape.org/namespaces/inkscape"
   viewBox="0 0 22 22"
   id="svg2"
   version="1.1"
   inkscape:version="0.91 r13725"
   sodipodi:docname="plot2.svg">
  <metadata
     id="metadata12">
    <rdf:RDF>
      <cc:Work
         rdf:about="">
        <dc:format>image/svg+xml</dc:format>
        <dc:type
           rdf:resource="http://purl.org/dc/dcmitype/StillImage" />
        <dc:title></dc:title>
      </cc:Work>
    </rdf:RDF>
  </metadata>
  <sodipodi:namedview
     pagecolor="#ffffff"
     bordercolor="#666666"
     borderopacity="1"
     objecttolerance="10"
     gridtolerance="10"
     guidetolerance="10"
     inkscape:pageopacity="0"
     inkscape:pageshadow="2"
     inkscape:window-width="1399"
     inkscape:window-height="701"
     id="namedview10"
     showgrid="false"
     inkscape:zoom="10.727273"
     inkscape:cx="-5.0696359"
     inkscape:cy="29.655588"
     inkscape:window-x="421"
     inkscape:window-y="207"
     inkscape:window-maximized="0"
     inkscape:current-layer="svg2" />
  <defs
     id="defs3051">
    <style
       type="text/css"
       id="current-color-scheme">
      .ColorScheme-Text {
        color:#f2f2f2;
      }
      </style>
  </defs>
  <path
     style="fill:currentColor;fill-opacity:1;stroke:#000000;stroke-width:0.35;stroke-miterlimit:4;stroke-dasharray:none"
     d="M 4 3 L 4 9 L 4 10 L 4 13.460938 L 4 14.875 L 4 15 L 4 16 L 4 17 L 3 17 L 3 18 L 4 18 L 4 19 L 5 19 L 5 18 L 18.292969 18 L 19 18 L 19 17.292969 L 19 17 L 18.707031 17 L 17.292969 17 L 5 17 L 5 15.431641 L 5 15.423828 L 5 15 L 5 13.875 L 8.9980469 9.8769531 L 11.121094 12 L 11.126953 11.996094 L 11.130859 12 L 19 4.125 L 19 3 L 18.710938 3 C 18.718138 2.987638 11.126953 10.589844 11.126953 10.589844 L 9 8.4648438 L 8.9980469 8.4667969 L 8.9960938 8.4648438 L 5 12.460938 L 5 12.423828 L 5 11.423828 L 5 11 L 5 10 L 5 9 L 5 6 L 5 5.9921875 L 5 5 L 5 3 L 4 3 z "
     class="ColorScheme-Text"
     id="path6" />
  <path
     style="fill:currentColor;fill-opacity:0.5;stroke:#000000;stroke-width:0.35;stroke-miterlimit:4;stroke-dasharray:none"
     d="M 19 4.125 L 11.130859 12 L 11.126953 11.996094 L 11.121094 12 L 8.9980469 9.8769531 L 5 13.875 L 5 17 L 19 17 L 19 4.125 z "
     class="ColorScheme-Text"
     id="path8" />
  <text
     xml:space="preserve"
     style="font-style:normal;font-weight:normal;font-size:40px;line-height:125%;font-family:Sans;text-align:center;letter-spacing:0px;word-spacing:0px;text-anchor:middle;fill:#00ff00;fill-opacity:1;stroke:#000000;stroke-width:0.7;stroke-linecap:butt;stroke-linejoin:miter;stroke-opacity:1;stroke-miterlimit:4;stroke-dasharray:none"
     x="11.737283"
     y="15.135591"
     id="text4784"
     sodipodi:linespacing="125%"><tspan
       sodipodi:role="line"
       id="tspan4786"
       x="11.737283"
       y="15.135591"
       style="font-style:normal;font-variant:normal;font-weight:bold;font-stretch:normal;font-size:15px;line-height:125%;font-family:Sans;-inkscape-font-specification:'Sans, Bold';text-align:center;writing-mode:lr-tb;text-anchor:middle;fill:#00ff00;stroke:#000000;stroke-width:0.7;stroke-miterlimit:4;stroke-dasharray:none">2</tspan></text>
</svg>
